<?xml version="1.0" encoding="utf-8"?>
<!-- Generator: Adobe Illustrator 19.0.0, SVG Export Plug-In . SVG Version: 6.00 Build 0)  -->
<svg version="1.1" id="Warstwa_1" xmlns="http://www.w3.org/2000/svg" xmlns:xlink="http://www.w3.org/1999/xlink" x="0px" y="0px"
	 viewBox="0 0 774 1003" style="enable-background:new 0 0 774 1003;" xml:space="preserve">
<style type="text/css">
	.st0{fill:#777777;}
	.st1{fill:none;stroke:#0E283C;stroke-linecap:round;stroke-linejoin:round;stroke-miterlimit:10;}
</style>
<g>
	<g id="XMLID_1_">
		<g>
			<path class="st0" d="M436.5,495l-4,17.8l-11.1-2.7c0,0,0,0,0-0.1c0,0,0-0.1-0.1-0.1c-0.1-0.3-0.3-0.8-0.7-1.6
				c-0.1-0.1-0.1-0.3-0.2-0.4c-0.8-1.6-1.9-3.9-3.5-6.5c-0.2-0.3-0.4-0.7-0.6-1c-0.2-0.4-0.5-0.8-0.7-1.2
				C415.6,499.2,423,493.5,436.5,495z"/>
			<path class="st0" d="M430.1,452.3c3.6,0.9,5.8,4.6,5,8.3c-0.8,3.7-4.4,6-8,5.2c-3.6-0.9-5.8-4.6-5-8.3
				C422.9,453.7,426.5,451.4,430.1,452.3z"/>
			<path class="st0" d="M420.6,508.4c-0.1-0.1-0.1-0.3-0.2-0.4C420.5,508.1,420.6,508.3,420.6,508.4z"/>
			<polygon class="st0" points="377.3,475.9 377.2,478.9 377.3,475.9 			"/>
			<polygon class="st0" points="377.3,475.9 377.2,478.9 372.1,478.9 372,475.9 			"/>
			<polygon class="st0" points="377.2,478.9 377.3,475.9 377.4,475.9 377.2,479 377.2,479 			"/>
			<rect x="372.1" y="478.9" class="st0" width="5.1" height="0"/>
			<path class="st0" d="M377.4,456.8c0,0-0.7,3.3,0.6,7.4c0.7,2.3-1.5,4.3-3.3,4.3c-1.8,0-3.3-1.9-3.3-4.3
				C371.4,461.8,377.4,456.8,377.4,456.8z"/>
		</g>
		<g>
			<polyline class="st1" points="396,443.8 398.1,434.6 447.5,446.5 436.5,495 			"/>
			<line class="st1" x1="421.4" y1="510.1" x2="405.8" y2="506.4"/>
			<path class="st1" d="M421.3,510c0,0,0,0.1,0.1,0.1"/>
			<path class="st1" d="M416.3,500.4c0.2,0.3,0.4,0.7,0.6,1"/>
			<path class="st1" d="M402.3,483.5c5.6,4.5,10.1,10.5,13.3,15.7"/>
			<path class="st1" d="M421.4,510.1C421.4,510.1,421.4,510.1,421.4,510.1c0-0.1,0-0.1-0.1-0.2c-0.1-0.3-0.3-0.8-0.7-1.6
				c-0.1-0.1-0.1-0.3-0.2-0.4c-0.8-1.6-1.9-3.9-3.5-6.5c-0.2-0.3-0.4-0.7-0.6-1c-0.2-0.4-0.5-0.8-0.7-1.2c0,0,7.4-5.7,21-4.2
				l-4,17.8L421.4,510.1z"/>
			<path class="st1" d="M435.1,460.6c-0.8,3.7-4.4,6-8,5.2c-3.6-0.9-5.8-4.6-5-8.3c0.8-3.7,4.4-6,8-5.2
				C433.7,453.2,436,456.9,435.1,460.6z"/>
			<polygon class="st1" points="405.8,506.4 406.5,511.3 354.1,520 343.5,452.1 396,443.4 396,443.8 402.2,483.5 			"/>
			<polyline class="st1" points="355.3,420.1 355.3,424.3 355.3,428.4 			"/>
			<polyline class="st1" points="360,424.3 355.3,424.3 350.6,424.3 			"/>
			<polyline class="st1" points="376.6,428.6 376.6,431.4 376.6,434.2 			"/>
			<polyline class="st1" points="379.4,431.4 376.6,431.4 373.8,431.4 			"/>
			<path class="st1" d="M377.3,475.9L377.3,475.9l0-1.4c0-2.8-0.7-4.8-1.4-6h-1.3h-1.3c-0.7,1.1-1.4,3.1-1.4,6l0,1.3l0.1,3.1l1,29.5
				c0,1.1,0.6,2.1,1.3,2.1h0.4c0.7,0,1.3-0.9,1.3-2.1l1-29.4"/>
			<path class="st1" d="M371.4,464.2c0,2.4,1.5,4.3,3.3,4.3c1.8,0,4-2,3.3-4.3c-1.3-4.1-0.6-7.4-0.6-7.4S371.4,461.8,371.4,464.2z"
				/>
			<polygon class="st1" points="377.2,478.9 372.1,478.9 372.1,478.9 372,475.9 372,475.9 377.3,475.9 377.3,475.9 377.3,475.9 			
				"/>
		</g>
	</g>
</g>
</svg>
