<?xml version="1.0" encoding="utf-8"?>
<!-- Generator: Adobe Illustrator 19.0.0, SVG Export Plug-In . SVG Version: 6.00 Build 0)  -->
<svg version="1.1" id="Warstwa_1" xmlns="http://www.w3.org/2000/svg" xmlns:xlink="http://www.w3.org/1999/xlink" x="0px" y="0px"
	 viewBox="0 0 774 1003" style="enable-background:new 0 0 774 1003;" xml:space="preserve">
<style type="text/css">
	.st0{fill:none;stroke:#3A54FC;stroke-linecap:round;stroke-linejoin:round;stroke-miterlimit:10;}
	.st1{opacity:0.3;fill:#3A54FC;}
</style>
<g>
	<g>
		<polyline class="st0" points="396.1,443.8 398.1,434.6 447.5,446.5 432.5,512.8 421.4,510.1 		"/>
		<path class="st0" d="M402.2,483.5c12,9.6,19.2,26.6,19.2,26.6l-15.6-3.7"/>
		<path class="st1" d="M421.4,510.1c0,0-2.1-4.9-5.8-10.9c0,0,7.4-5.7,21-4.2l-4,17.8L421.4,510.1z"/>
		<path class="st0" d="M421.4,510.1c0,0-2.1-4.9-5.8-10.9c0,0,7.4-5.7,21-4.2l-4,17.8L421.4,510.1z"/>
		<path class="st1" d="M435.1,460.6c-0.8,3.7-4.4,6-8,5.2c-3.6-0.9-5.8-4.6-5-8.3c0.8-3.7,4.4-6,8-5.2
			C433.7,453.2,436,456.9,435.1,460.6z"/>
		<path class="st0" d="M435.1,460.6c-0.8,3.7-4.4,6-8,5.2c-3.6-0.9-5.8-4.6-5-8.3c0.8-3.7,4.4-6,8-5.2
			C433.7,453.2,436,456.9,435.1,460.6z"/>
	</g>
	<polygon class="st0" points="406.5,511.3 354.1,520 343.5,452.1 396,443.4 	"/>
	<g>
		<line class="st0" x1="355.3" y1="420.1" x2="355.3" y2="428.4"/>
		<line class="st0" x1="360" y1="424.3" x2="350.6" y2="424.3"/>
	</g>
	<g>
		<line class="st0" x1="376.6" y1="428.6" x2="376.6" y2="434.2"/>
		<line class="st0" x1="379.4" y1="431.4" x2="373.7" y2="431.4"/>
	</g>
	<g>
		<path class="st0" d="M373.4,468.6c-0.7,1.1-1.4,3.1-1.4,6l1.2,33.9c0,1.1,0.6,2.1,1.3,2.1h0.4c0.7,0,1.3-0.9,1.3-2.1l1.2-33.9
			c0-2.8-0.7-4.8-1.4-6H373.4z"/>
		<path class="st1" d="M371.4,464.2c0,2.4,1.5,4.4,3.3,4.4c1.8,0,4-2.1,3.3-4.4c-1.3-4.1-0.6-7.4-0.6-7.4S371.4,461.8,371.4,464.2z"
			/>
		<path class="st0" d="M371.4,464.2c0,2.4,1.5,4.4,3.3,4.4c1.8,0,4-2.1,3.3-4.4c-1.3-4.1-0.6-7.4-0.6-7.4S371.4,461.8,371.4,464.2z"
			/>
	</g>
	<polygon class="st1" points="377.2,479 372.1,479 372,475.9 377.3,475.9 	"/>
	<polygon class="st0" points="377.2,478.9 372.1,478.9 372,475.9 377.3,475.9 	"/>
</g>
</svg>
